<svg xmlns="http://www.w3.org/2000/svg" viewBox="0 0 24 24" fill="#111827">
  <path d="M12 .5a12 12 0 0 0-3.794 23.385c.6.111.82-.26.82-.577v-2.234c-3.338.726-4.042-1.418-4.042-1.418-.547-1.39-1.336-1.76-1.336-1.76-1.091-.745.082-.729.082-.729 1.205.085 1.84 1.238 1.84 1.238 1.072 1.837 2.813 1.306 3.497.999.108-.776.419-1.306.762-1.606-2.664-.304-5.466-1.332-5.466-5.927 0-1.31.468-2.381 1.236-3.221-.124-.304-.536-1.527.117-3.182 0 0 1.008-.323 3.301 1.23a11.49 11.49 0 0 1 6.012 0c2.292-1.553 3.299-1.23 3.299-1.23.654 1.655.242 2.878.119 3.182.77.84 1.234 1.911 1.234 3.221 0 4.606-2.807 5.619-5.48 5.917.431.372.815 1.102.815 2.222v3.293c0 .319.218.694.825.576A12.002 12.002 0 0 0 12 .5Z"/>
</svg>
